<svg id="Camada_1" data-name="Camada 1" xmlns="http://www.w3.org/2000/svg" viewBox="0 0 2334.34 1092.05"><defs><style>.cls-1{fill:#0f9bfe;}</style></defs><title>ÍCONE_AZUL</title><path class="cls-1" d="M1257.47,1409.49l155-156.27c3.52,5.44,6.53,12.39,11.51,17.4q81.69,82.22,163.93,163.9a330.36,330.36,0,0,0,381.45,61.17c129.66-65.28,199.82-204.26,176.84-350.28-21.15-134.33-133.25-246-271.19-267.89-110.66-17.54-207.46,13-287.11,91.73C1405,1150,1223.47,1332,1040.49,1512.66c-47,46.41-93.35,95-146.79,133.18C566.92,1879,101.79,1683,39.86,1287.82c-48.14-307.11,164.3-590.31,473-626.49C688.46,640.75,841.15,693.92,968,817.7c54.83,53.52,108.56,108.15,162.76,162.3,4.52,4.52,8.8,9.27,11.9,12.55L988.57,1146.31c-19.6-20.35-40.35-42.57-61.83-64.08C884.54,1040,844.21,995.46,799,956.6c-103.18-88.76-221.77-109.7-347-57.47-124.68,52-192.71,150.25-201.32,285.62C242,1321.87,320.58,1446.49,447.84,1503c122,54.17,268.57,26.78,364.06-68.2q202.32-201.23,404.55-402.56c77.82-77.35,152.83-157.84,234.46-231C1612,657,1800.16,617,2003.55,688.91c202.75,71.67,324,220.45,357.26,433.19,46.61,298.21-159.23,573.09-459.6,616.61-180,26.07-336.38-26.77-467.24-152.75-58.93-56.74-116.2-115.18-174.18-172.9A14.72,14.72,0,0,1,1257.47,1409.49Z" transform="translate(-33.05 -653.99)"/></svg>