<svg xmlns="http://www.w3.org/2000/svg" xmlns:xlink="http://www.w3.org/1999/xlink" width="400" height="400" viewBox="0 0 400 400">
  <defs>
    <linearGradient id="linear-gradient" x1="0.5" y1="0.294" x2="0.5" y2="1.787" gradientUnits="objectBoundingBox">
      <stop offset="0" stop-color="#3cccda"/>
      <stop offset="1" stop-color="#1262ff"/>
    </linearGradient>
    <linearGradient id="linear-gradient-2" y1="-0.236" y2="1.569" xlink:href="#linear-gradient"/>
    <linearGradient id="linear-gradient-3" y1="0.336" y2="1.308" xlink:href="#linear-gradient"/>
    <linearGradient id="linear-gradient-4" y1="-1.157" y2="1.23" xlink:href="#linear-gradient"/>
    <linearGradient id="linear-gradient-5" y1="-9.33" y2="4.267" xlink:href="#linear-gradient"/>
    <linearGradient id="linear-gradient-6" y1="-7.893" y2="5.723" xlink:href="#linear-gradient"/>
    <linearGradient id="linear-gradient-7" y1="-0.47" y2="0.964" xlink:href="#linear-gradient"/>
    <linearGradient id="linear-gradient-8" y1="-3.199" y2="0.88" xlink:href="#linear-gradient"/>
    <linearGradient id="linear-gradient-9" y1="-0.376" y2="1.06" xlink:href="#linear-gradient"/>
    <linearGradient id="linear-gradient-10" y1="-6.746" y2="3.903" xlink:href="#linear-gradient"/>
    <linearGradient id="linear-gradient-11" y1="-5.284" y2="5.374" xlink:href="#linear-gradient"/>
    <clipPath id="clip-_04_oSeuCredito">
      <rect width="400" height="400"/>
    </clipPath>
  </defs>
  <g id="_04_oSeuCredito" data-name="04_oSeuCredito" clip-path="url(#clip-_04_oSeuCredito)">
    <rect width="400" height="400" fill="#fff"/>
    <g id="_04B_oSeuCredito" data-name="04B_oSeuCredito" transform="translate(0.163)">
      <path id="Path_44" data-name="Path 44" d="M205.077,194.832l32.91-20.569a4.409,4.409,0,0,1,1.1-.476,43.154,43.154,0,0,1,13.19-4.119V43.152H147.72V233.408a199.406,199.406,0,0,1,34.753,4.606C184.124,218.131,191.927,203.051,205.077,194.832Z" fill="url(#linear-gradient)"/>
      <path id="Path_45" data-name="Path 45" d="M121.394,233.806V138.563H16.837v161.13a4.337,4.337,0,0,1,.193-1.222C20.2,265.247,64.6,238.208,121.394,233.806Z" fill="url(#linear-gradient-2)"/>
      <path id="Path_46" data-name="Path 46" d="M383.026.016c-.077,0-.151.025-.228.025H278.973c-.125,0-.244-.036-.367-.04V172.2a97.563,97.563,0,0,1,18.544,7.991c22.662,12.532,44.438,34.3,61.312,61.305,11.793,18.869,20.226,38.767,24.7,57.869V11.8C383.117,11.764,383.072,7.35,383.026.016Z" fill="url(#linear-gradient-3)"/>
      <path id="Path_47" data-name="Path 47" d="M21.87,302.437c0,33.6,50.813,60.93,113.265,60.93,30.248,0,59.361-6.674,80.664-18.384-2.409-3.395-4.761-6.893-7.023-10.514-17.065-27.3-27.206-56.747-28.553-82.9q-.132-2.532-.149-4.986a195.584,195.584,0,0,0-44.939-5.077C72.683,241.505,21.87,268.839,21.87,302.437ZM107,265.254a61.1,61.1,0,0,1,21.345-5.1l-.067-4.674a4.48,4.48,0,1,1,8.959-.129l.072,4.666c13.073.543,24.369,4.278,30.116,10.125a4.482,4.482,0,1,1-6.393,6.284c-3.405-3.461-11.842-6.87-23.6-7.433l.321,22.117c14.326.941,34.057,3.491,34.286,19.12a12.2,12.2,0,0,1-1.853,6.544c-4.438,7.342-16.489,12.68-31.858,13.751l.067,4.669a4.482,4.482,0,1,1-8.963.13l-.066-4.666c-13.59-.553-25.111-4.516-30.682-10.728a4.482,4.482,0,1,1,6.672-5.985c3.137,3.493,11.758,7.14,23.88,7.732l-.325-22.146c-15.7-1.228-34.076-4.936-34.282-19.089C94.54,274.456,98.939,269.061,107,265.254Z" fill="url(#linear-gradient-4)"/>
      <path id="Path_48" data-name="Path 48" d="M163.075,310.359c-.082-5.793-7.48-8.837-25.188-10.218l.311,21.4C153.591,320.354,163.138,314.46,163.075,310.359Z" fill="url(#linear-gradient-5)"/>
      <path id="Path_49" data-name="Path 49" d="M128.783,290.512l-.313-21.371a52.415,52.415,0,0,0-17.643,4.218c-4.492,2.123-7.262,4.781-7.232,6.955C103.672,285.533,112.58,289.1,128.783,290.512Z" fill="url(#linear-gradient-6)"/>
      <path id="Path_50" data-name="Path 50" d="M239.84,315.055c-27.121-43.4-35.051-90.218-23-119.19l-8.82,5.513c-13.376,8.359-20.069,26.02-18.845,49.728,1.268,24.658,10.931,52.577,27.2,78.614,33.1,52.963,83.211,81.559,111.7,63.753l8.788-5.493C305.548,386.1,266.955,358.439,239.84,315.055Z" fill="url(#linear-gradient-7)"/>
      <path id="Path_51" data-name="Path 51" d="M135.135,372.332c-51.178,0-95.082-18.088-113.265-43.664v10.4c0,33.6,50.813,60.932,113.265,60.932,41.813,0,79.5-12.27,99.528-32.152a196.743,196.743,0,0,1-13.472-15.613C198.233,365.2,167.838,372.332,135.135,372.332Z" fill="url(#linear-gradient-8)"/>
      <path id="Path_52" data-name="Path 52" d="M350.783,245.719c-16.271-26.036-37.132-46.955-58.74-58.9-12.1-6.693-23.545-10.071-33.629-10.071a35.9,35.9,0,0,0-19.331,5.22c-28.489,17.807-24.74,75.38,8.362,128.341s83.184,81.562,111.689,63.759l.018-.011c13.367-8.361,20.058-26.019,18.837-49.722C376.716,299.673,367.057,271.753,350.783,245.719Zm-11.729,48.833a4.483,4.483,0,0,1-8.687-2.217c1.2-4.7-.249-13.687-5.852-24.035l-18.756,11.724c6.61,12.743,14.64,30.946,1.384,39.229a12.173,12.173,0,0,1-6.556,1.8c-8.581,0-19.384-7.545-28.258-20.143l-3.957,2.476a4.482,4.482,0,1,1-4.751-7.6l3.957-2.473c-6.561-11.915-9.132-23.821-6.7-31.8a4.482,4.482,0,1,1,8.576,2.612c-1.366,4.491-.024,13.755,5.745,24.432l18.781-11.738C286.9,262.75,280.56,245.1,292.564,237.6c5.076-3.177,11.969-2.206,19.4,2.719a61.136,61.136,0,0,1,15.411,15.623l3.964-2.477a4.481,4.481,0,1,1,4.748,7.6l-3.958,2.474C338.432,275.013,341.084,286.61,339.054,294.552Z" fill="url(#linear-gradient-9)"/>
      <path id="Path_53" data-name="Path 53" d="M279.949,296.153c8.983,12.556,18.969,17.673,22.445,15.5,4.914-3.07,3.691-10.974-4.294-26.841Z" fill="url(#linear-gradient-10)"/>
      <path id="Path_54" data-name="Path 54" d="M307.009,247.793c-4.141-2.744-7.85-3.738-9.694-2.588-4.426,2.767-2.868,12.238,4.311,26.831l18.125-11.328A52.421,52.421,0,0,0,307.009,247.793Z" fill="url(#linear-gradient-11)"/>
    </g>
  </g>
</svg>
