<svg xmlns="http://www.w3.org/2000/svg" width="398" height="84.035" viewBox="0 0 398 84.035">
  <g id="logo-avec-roxo-horizontal" transform="translate(5529.608 -718.029)">
    <g id="Grupo_139" data-name="Grupo 139" transform="translate(-5529.608 718.029)">
      <g id="Grupo_138" data-name="Grupo 138" transform="translate(149.212 15.468)">
        <path id="Caminho_119" data-name="Caminho 119" d="M-5105.876,776.992a20.457,20.457,0,0,0,3.244,8.679c4.636,6.837,11.28,9.262,19.256,8.421a21.465,21.465,0,0,0,12.439-5.823,5.566,5.566,0,0,1,7.822.569,5.307,5.307,0,0,1-.31,7.631,29.626,29.626,0,0,1-15.97,7.466,35.491,35.491,0,0,1-19.034-1.673c-10.922-4.328-17.318-12.422-19.186-23.963a31.873,31.873,0,0,1,4.543-22.952,29.227,29.227,0,0,1,20.521-13.408,30.749,30.749,0,0,1,19.582,2.633c8.17,4.15,12.938,10.958,14.9,19.785a42.235,42.235,0,0,1,.792,6.827c.164,3.016-1.389,4.917-4.381,5.569a12.153,12.153,0,0,1-2.562.23l-40.426.009Zm.153-8.68h36.307c-1.388-10.181-8.33-16.643-17.723-16.689C-5097.644,751.572-5104.266,758.966-5105.723,768.312Z" transform="translate(5241.902 -741.363)" fill="#4b195f"/>
        <path id="Caminho_120" data-name="Caminho 120" d="M-5262.143,795.267a23.625,23.625,0,0,1-9.632,7.218c-8,3.064-15.937,2.815-23.494-1.266-7.246-3.913-10.04-11.434-9.33-18.847.638-6.666,4.8-10.354,10.727-12.5a48.91,48.91,0,0,1,14.349-2.651c5.387-.267,10.785-.289,16.179-.415.375-.009.75,0,1.19,0-.183-3.572-.614-6.971-2.372-10.047a10.513,10.513,0,0,0-8.18-5.2,26.608,26.608,0,0,0-15.96,2.222c-.854.427-1.67.932-2.488,1.429a6.58,6.58,0,0,1-6.89-.125,4.368,4.368,0,0,1-.621-6.694,20.564,20.564,0,0,1,8.693-5.044,40.262,40.262,0,0,1,22.294-.789c8.751,2.2,13.836,8.068,15.629,16.771a46.6,46.6,0,0,1,.905,8.836c.109,10.155.063,20.313.037,30.469-.011,4.087-3.539,6.755-7.239,5.555a5.46,5.46,0,0,1-3.795-5.113C-5262.165,797.9-5262.143,796.725-5262.143,795.267Zm-.173-20.18a4.553,4.553,0,0,0-.534-.053c-5.87.137-11.743.2-17.607.449a25.629,25.629,0,0,0-8.225,1.637,6.971,6.971,0,0,0-4.5,4.121,9.952,9.952,0,0,0,3.8,11.423c3.861,2.535,8.171,2.773,12.54,1.982,6.52-1.18,10.7-5.193,12.972-11.305A25.521,25.521,0,0,0-5262.316,775.087Z" transform="translate(5304.705 -741.343)" fill="#4b195f"/>
        <path id="Caminho_121" data-name="Caminho 121" d="M-4973.983,803.405a36.548,36.548,0,0,1-17.284-.167,29.369,29.369,0,0,1-18.35-13.345c-11.112-17.667-2.8-43.939,21.686-47.965a32.335,32.335,0,0,1,26.642,7.011c1.821,1.475,3.19,3.153,3.039,5.647a5.139,5.139,0,0,1-3.444,4.851,5.036,5.036,0,0,1-5.733-1.17,21.007,21.007,0,0,0-12.116-6.424,19.428,19.428,0,0,0-21.383,12.625c-3.147,8.781-2.08,17.076,4.516,24.022a19.635,19.635,0,0,0,25.954,1.8,21.27,21.27,0,0,0,2.881-2.513,5.464,5.464,0,0,1,7.8-.047,5.78,5.78,0,0,1-.246,8.1,29.942,29.942,0,0,1-13.879,7.549Z" transform="translate(5207.023 -741.371)" fill="#4b195f"/>
        <path id="Caminho_122" data-name="Caminho 122" d="M-5182.9,786.544c.45-.989.819-1.793,1.183-2.6q8.719-19.309,17.44-38.619c1.393-3.082,4.193-4.492,7.146-3.613a4.867,4.867,0,0,1,3.224,6.952q-11.878,26.227-23.783,52.443a5.451,5.451,0,0,1-5.149,3.362c-2.391.062-3.86-1.315-4.8-3.334q-12.147-26.211-24.258-52.438a4.95,4.95,0,0,1,4.115-7.174,5.8,5.8,0,0,1,6.178,3.7q4.879,10.76,9.731,21.529,4.233,9.372,8.462,18.743C-5183.281,785.783-5183.135,786.065-5182.9,786.544Z" transform="translate(5273.645 -741.381)" fill="#4b195f"/>
      </g>
      <path id="Caminho_123" data-name="Caminho 123" d="M-5404.521,734.452a4.471,4.471,0,0,0-5.261.965c-.04.038-.081.073-.119.114-10.956,11.618-21.86,20.5-36,24.758l-15.766-39.447a4.472,4.472,0,0,0-4.152-2.812,4.473,4.473,0,0,0-4.153,2.812l-15.766,39.446c-14.141-4.257-25.046-13.14-36-24.758-.038-.04-.079-.074-.117-.113a4.475,4.475,0,0,0-5.262-.966,4.474,4.474,0,0,0-2.022,5.992l29.3,59.135a4.479,4.479,0,0,0,4.186,2.483,4.471,4.471,0,0,0,3.974-2.809l11.537-28.868a81.638,81.638,0,0,0,14.322,1.219,81.64,81.64,0,0,0,14.322-1.219l11.538,28.868a4.473,4.473,0,0,0,3.974,2.809c.06,0,.12,0,.179,0a4.473,4.473,0,0,0,4.007-2.486l29.3-59.135A4.469,4.469,0,0,0-5404.521,734.452Zm-91.75,52.185-14.787-29.843a80.539,80.539,0,0,0,8.831,5.743,70.319,70.319,0,0,0,13.3,5.711Zm30.45-23.571a74.343,74.343,0,0,1-11.078-.8l11.078-27.718,11.077,27.718A74.32,74.32,0,0,1-5465.821,763.066Zm30.449,23.571-7.349-18.387a70.339,70.339,0,0,0,13.306-5.711,80.455,80.455,0,0,0,8.832-5.743Z" transform="translate(5529.608 -718.029)" fill="#4b195f"/>
    </g>
  </g>
</svg>
